<?xml version="1.0" encoding="UTF-8" standalone="no"?>
<!-- Created with Inkscape (http://www.inkscape.org/) -->

<svg
   width="440.22549pt"
   height="109.41808pt"
   viewBox="0 0 155.30177 38.600268"
   version="1.1"
   id="svg5"
   inkscape:version="1.1.2 (0a00cf5339, 2022-02-04, custom)"
   sodipodi:docname="title.svg"
   xmlns:inkscape="http://www.inkscape.org/namespaces/inkscape"
   xmlns:sodipodi="http://sodipodi.sourceforge.net/DTD/sodipodi-0.dtd"
   xmlns="http://www.w3.org/2000/svg"
   xmlns:svg="http://www.w3.org/2000/svg">
  <sodipodi:namedview
     id="namedview7"
     pagecolor="#ffffff"
     bordercolor="#666666"
     borderopacity="1.0"
     inkscape:pageshadow="2"
     inkscape:pageopacity="0.0"
     inkscape:pagecheckerboard="0"
     inkscape:document-units="mm"
     showgrid="false"
     units="pt"
     fit-margin-top="0"
     fit-margin-left="0"
     fit-margin-right="0"
     fit-margin-bottom="0"
     inkscape:zoom="1.0469406"
     inkscape:cx="257.4167"
     inkscape:cy="59.220168"
     inkscape:window-width="2560"
     inkscape:window-height="1017"
     inkscape:window-x="-8"
     inkscape:window-y="-8"
     inkscape:window-maximized="1"
     inkscape:current-layer="layer1" />
  <defs
     id="defs2" />
  <g
     inkscape:label="Layer 1"
     inkscape:groupmode="layer"
     id="layer1"
     transform="translate(-24.276581,-52.402013)">
    <g
       aria-label="Seni
   Candramawa"
       id="text2256"
       style="font-size:25.4px;line-height:0.7;font-family:'Zen Antique';-inkscape-font-specification:'Zen Antique';white-space:pre;inline-size:162.376;stroke:#000000;stroke-width:0.565"
       transform="matrix(1,-0.09763719,0,1,0,9.9519114)">
      <path
         d="m 34.363481,46.150095 q 2.3622,0 3.3782,0.762 1.016,0.762 1.016,1.8542 0,1.0668 -0.7366,2.0066 -0.7112,0.9144 -2.0066,0.9144 -1.2954,0 -1.2954,-1.0922 0,-0.1016 0.0508,-0.4064 0.6858,0 1.1938,-0.5334 0.508,-0.5334 0.508,-1.1684 0,-0.635 -0.6096,-1.0414 -0.6096,-0.4064 -1.4732,-0.4064 -1.4732,0 -2.4384,0.889 -0.9652,0.889 -0.9652,2.0828 0,0.635 0.4572,1.397 0.4572,0.762 0.8636,1.2192 0.4318,0.4318 1.3716,1.3208 0.9652,0.8636 1.143,1.0414 1.9304,1.9304 1.9304,4.2164 0,2.260599 -2.0574,3.962399 -2.0574,1.6764 -4.9276,1.6764 -2.3368,0 -3.7846,-0.762 -1.4224,-0.762 -1.4224,-2.3876 0,-0.889 0.5842,-1.625599 0.5842,-0.7366 1.651,-0.7366 1.0922,0 1.4732,0.762 -0.889,0.711199 -0.889,1.727199 0,0.9906 0.6604,1.5494 0.6858,0.5334 1.778,0.5334 1.524,0 2.667,-1.0922 1.1684,-1.0922 1.1684,-2.743199 0,-1.6764 -2.1844,-3.9878 -0.0254,-0.0508 -0.889,-0.9398 -0.8636,-0.9144 -1.4478,-1.8542 -0.5588,-0.9398 -0.5588,-2.2352 0,-2.2098 1.7272,-3.556 1.7272,-1.3462 4.064,-1.3462 z"
         style="font-family:Playball;-inkscape-font-specification:Playball"
         id="path7446" />
      <path
         d="m 47.596899,57.732495 q 0.1524,0 0.1524,0.508 0,0.4826 -0.4064,1.1684 -0.4064,0.6858 -0.8128,1.2954 -0.381,0.609599 -1.0414,1.422399 -0.6604,0.8128 -1.2954,1.2954 -1.6002,1.1684 -3.2258,1.1684 -1.6002,0 -2.5908,-0.8128 -0.9906,-0.8382 -0.9906,-2.54 0,-2.590799 1.905,-4.800599 1.905,-2.2098 4.445,-2.2098 1.143,0 1.8288,0.6096 0.6858,0.5842 0.6858,1.4224 0,1.4224 -1.3462,2.286 -1.3462,0.8636 -3.175,0.8636 -1.0668,0 -1.5748,-0.2794 -0.4826,1.2954 -0.4826,2.285999 0,2.1336 1.8034,2.1336 1.0668,0 2.1844,-0.8128 1.143,-0.8382 1.9304,-1.8542 0.8128,-1.041399 1.8288,-2.971799 0.1016,-0.1778 0.1778,-0.1778 z m -2.6924,-2.0066 q 0,-0.7366 -0.7112,-0.7366 -0.9906,0 -2.2098,1.2192 -1.2192,1.2192 -1.2192,1.9812 0,0.508 0.9652,0.508 0.9652,0 2.0066,-0.9398 1.0668,-0.9398 1.1684,-2.032 z"
         style="font-family:Playball;-inkscape-font-specification:Playball"
         id="path7448" />
      <path
         d="m 58.518894,59.231095 q -0.9398,1.574799 -1.7272,2.641599 -0.762,1.0414 -1.7526,1.8288 -0.9906,0.7874 -1.8034,0.7874 -1.4986,0 -1.4986,-1.651 0,-1.651 1.905,-6.629399 0.1016,-0.2286 0.1016,-0.4826 0,-0.5334 -0.6858,-0.5334 -0.6604,0 -1.3208,0.4318 -0.635,0.4064 -1.1684,1.1938 -0.5334,0.762 -0.9652,1.5748 -0.4318,0.7874 -0.8128,1.8288 -0.3556,1.041399 -0.5842,1.752599 -0.2032,0.6858 -0.4318,1.4986 -0.2032,0.7874 -0.2286,0.8636 h -2.4638 q 0,-0.5334 2.2352,-6.121399 0.9144,-2.6162 0.9144,-3.6576 0,-0.254 -0.0762,-0.381 h 1.0668 q 0.889,0 1.143,0.1778 0.254,0.1778 0.254,0.4826 0,0.3048 -0.2794,1.2446 2.1336,-2.032 4.2926,-2.032 1.4478,0 1.4478,1.3208 0,0.4318 -0.127,0.8636 -0.127,0.4318 -0.635,1.7272 -1.1176,2.844799 -1.1176,3.809999 0,0.6096 0.4572,0.6096 0.3302,0 0.9144,-0.4572 0.6096,-0.4572 0.9906,-0.9398 0.4064,-0.507999 0.8636,-1.244599 0.4826,-0.762 0.8128,-1.3208 0.3302,-0.5588 0.381,-0.5588 0.1524,0 0.1524,0.4826 0,0.4572 -0.254,0.889 z"
         style="font-family:Playball;-inkscape-font-specification:Playball"
         id="path7450" />
      <path
         d="m 64.868917,50.823695 h -0.1016 q -0.508,0 -0.9906,0.4318 -0.4572,0.4318 -0.6604,0.889 -0.6604,-0.254 -0.6604,-0.9144 0,-0.6604 0.6096,-1.3208 0.6096,-0.6858 1.1684,-0.6858 0.5588,0 0.8382,0.254 0.2794,0.254 0.2794,0.6604 0,0.381 -0.4826,0.6858 z m -3.4544,3.3528 1.27,0.0254 h 0.254 q -0.4064,0.3048 -1.0922,1.651 -0.6604,1.3462 -0.9906,2.032 -0.3302,0.6858 -0.762,1.8542 -0.4064,1.168399 -0.4064,1.904999 0,0.7366 0.4826,0.7366 0.3302,0 0.9144,-0.4318 0.6096,-0.4572 0.9906,-0.9398 0.381,-0.507999 0.8382,-1.269999 0.4826,-0.762 0.8128,-1.3208 0.3556,-0.5588 0.4064,-0.5588 0.1524,0 0.1524,0.4826 0,0.4572 -0.254,0.889 -0.9398,1.574799 -1.7272,2.641599 -0.762,1.0414 -1.7526,1.8288 -0.9906,0.7874 -1.8034,0.7874 -1.4224,0 -1.4224,-1.9812 0,-3.073399 2.1082,-6.807199 0.889,-1.524 1.9812,-1.524 z"
         style="font-family:Playball;-inkscape-font-specification:Playball"
         id="path7452" />
      <path
         d="m 64.284622,71.042097 q -0.4064,1.0414 -1.524,1.7526 -1.0922,0.7112 -2.285999,0.7112 -0.5588,0 -0.9144,-0.2286 -0.3556,-0.254 -0.3556,-0.635 0,-0.381 0.3048,-0.8128 0.2794,0.1016 0.635,0.1016 0.9906,0 1.828799,-0.6858 0.8382,-0.6858 0.8382,-1.651 0,-1.4732 -1.955799,-1.4732 -2.5908,0 -5.0546,1.778 -2.4638,1.778 -3.9878,4.6228 -1.4986,2.8194 -1.4986,5.7404 0,4.5212 4.1148,4.5212 2.5654,0 5.4356,-1.9812 2.870199,-1.9812 3.809999,-4.2926 0.4826,0.3302 0.4826,0.889 0,1.143 -1.6256,2.8448 -1.625599,1.6764 -4.089399,2.6924 -2.4638,0.9906 -5.0292,0.9906 -5.969,0 -5.969,-5.5626 0,-2.1082 0.9398,-4.3942 0.9398,-2.3114 2.54,-4.2672 1.6002,-1.9812 3.9878,-3.2512 2.413,-1.27 4.7498,-1.27 2.336799,0 3.581399,0.8128 1.2446,0.7874 1.2446,2.032 0,0.4572 -0.2032,1.016 z"
         style="font-family:Playball;-inkscape-font-specification:Playball"
         id="path7454" />
      <path
         d="m 74.673228,75.004497 1.27,0.0254 h 0.254 q -0.8382,0.6858 -2.0574,3.4798 -1.2192,2.7686 -1.2192,4.0386 0,0.6604 0.4572,0.6604 1.4732,0 3.7592,-4.3434 0.1016,-0.1778 0.1778,-0.1778 0.1524,0 0.1524,0.4826 0,0.4572 -0.254,0.889 -3.1242,5.2578 -5.2324,5.2578 -1.3716,0 -1.3716,-2.1082 0,-1.5748 0.5334,-3.0988 -2.8956,5.1308 -5.3594,5.1308 -1.7018,0 -1.7018,-2.3368 0,-1.778 0.762,-3.6068 0.7874,-1.8288 2.2352,-3.0988 1.4478,-1.2954 3.175,-1.2954 0.8128,0 1.524,0.381 0.7112,0.3556 0.9398,1.1684 0.2794,-0.5842 0.8636,-1.016 0.5842,-0.4318 1.0922,-0.4318 z m -2.1082,1.6764 q -0.254,-0.8128 -1.1938,-0.8128 -1.6764,0 -3.2512,2.3368 -1.5748,2.3114 -1.5748,4.1402 0,0.7874 0.6096,0.7874 0.6604,0 1.5494,-0.8128 0.889,-0.8382 1.6002,-1.9558 1.5748,-2.4892 2.2606,-3.683 z"
         style="font-family:Playball;-inkscape-font-specification:Playball"
         id="path7456" />
      <path
         d="m 88.287618,80.059097 q -0.9398,1.5748 -1.7272,2.6416 -0.762,1.0414 -1.7526,1.8288 -0.9906,0.7874 -1.8034,0.7874 -1.4986,0 -1.4986,-1.651 0,-1.651 1.905,-6.6294 0.1016,-0.2286 0.1016,-0.4826 0,-0.5334 -0.6858,-0.5334 -0.6604,0 -1.3208,0.4318 -0.635,0.4064 -1.1684,1.1938 -0.5334,0.762 -0.9652,1.5748 -0.4318,0.7874 -0.8128,1.8288 -0.3556,1.0414 -0.5842,1.7526 -0.2032,0.6858 -0.4318,1.4986 -0.2032,0.7874 -0.2286,0.8636 h -2.4638 q 0,-0.5334 2.2352,-6.1214 0.9144,-2.6162 0.9144,-3.6576 0,-0.254 -0.0762,-0.381 h 1.0668 q 0.889,0 1.143,0.1778 0.254,0.1778 0.254,0.4826 0,0.3048 -0.2794,1.2446 2.1336,-2.032 4.2926,-2.032 1.4478,0 1.4478,1.3208 0,0.4318 -0.127,0.8636 -0.127,0.4318 -0.635,1.7272 -1.1176,2.8448 -1.1176,3.81 0,0.6096 0.4572,0.6096 0.3302,0 0.9144,-0.4572 0.6096,-0.4572 0.9906,-0.9398 0.4064,-0.508 0.8636,-1.2446 0.4826,-0.762 0.8128,-1.3208 0.3302,-0.5588 0.381,-0.5588 0.1524,0 0.1524,0.4826 0,0.4572 -0.254,0.889 z"
         style="font-family:Playball;-inkscape-font-specification:Playball"
         id="path7458" />
      <path
         d="m 101.72424,68.552897 q -0.8382,0.6096 -2.209801,3.429 -1.3462,2.794 -2.3876,5.9182 -1.0414,3.0988 -1.0414,4.4958 0,0.8128 0.4318,0.8128 0.4318,0 1.0668,-0.5588 0.6604,-0.5588 0.9398,-0.9398 0.2794,-0.381 0.7366,-1.143 0.4826,-0.7874 0.812801,-1.3462 0.3556,-0.5842 0.4064,-0.5842 0.1778,0 0.1778,0.4826 -0.0254,0.889 -2.108201,3.7084 -0.6858,0.9144 -1.651,1.7018 -0.9652,0.7874 -1.7526,0.7874 -1.3462,0 -1.3462,-2.0066 0,-1.4732 0.7366,-3.7846 -1.1684,2.3114 -2.667,4.0132 -1.4986,1.7018 -2.9972,1.7018 -1.7018,0 -1.7018,-2.3368 0,-1.778 0.762,-3.6068 0.7874,-1.8288 2.2352,-3.0988 1.4478,-1.2954 3.1242,-1.2954 1.7018,0 2.3368,1.1176 0.7112,-1.397 1.4478,-3.2258 0.762,-1.8288 0.9906,-2.3622 0.254,-0.5588 0.3556,-0.8128 0.127,-0.254 0.3048,-0.4826 0.2794,-0.3556 0.6604,-0.4318 0.4064,-0.1016 1.270001,-0.1016 0.889,-0.0254 1.0668,-0.0508 z m -6.223001,7.7724 q -0.3048,-0.4572 -1.016,-0.4572 -1.143,0 -2.3114,1.1684 -1.143,1.143 -1.8542,2.667 -0.6858,1.4986 -0.6858,2.6416 0,0.7874 0.6096,0.7874 2.0574,0 5.2578,-6.8072 z"
         style="font-family:Playball;-inkscape-font-specification:Playball"
         id="path7460" />
      <path
         d="m 106.27083,74.953697 1.2954,0.0254 h 0.254 q -0.381,0.2794 -1.0922,1.651 -0.6858,1.3716 -1.0414,2.0828 -0.3302,0.6858 -0.762,1.8796 -0.4064,1.1684 -0.4064,1.905 0,0.7366 0.508,0.7366 0.3302,-0.0254 0.9144,-0.4572 0.6096,-0.4572 0.9906,-0.9398 0.4064,-0.508 0.8636,-1.27 0.4826,-0.7874 0.8128,-1.3462 0.3556,-0.5842 0.4064,-0.5842 0.1778,0 0.1778,0.4826 0,0.4572 -0.254,0.889 -1.0922,1.8034 -1.8034,2.7686 -0.7112,0.9652 -1.7272,1.778 -0.9906,0.7874 -1.8034,0.7874 -1.4478,0 -1.4478,-2.1336 0,-1.4478 0.5588,-3.2766 0.5588,-1.8288 1.651,-3.5306 -0.889,0.7112 -1.778,0.7112 -0.2794,0 -0.5842,-0.127 -1.8034,3.556 -1.9558,3.556 -0.126998,0 -0.126998,-0.4064 0,-0.4318 0.304798,-1.1684 0.3302,-0.762 0.6858,-1.4478 0.381,-0.6858 0.4064,-0.762 -0.9144,-0.4572 -0.9144,-1.4732 0,-0.508 0.3048,-0.9144 0.3302,-0.4064 0.889,-0.4064 0.5588,0 0.9144,0.3556 -0.0508,0.1524 -0.0508,0.4572 0,0.6858 0.4826,1.0922 0.508,0.381 1.2192,0.381 0.2032,0 0.3048,-0.0254 0.889,-1.27 1.8034,-1.27 z"
         style="font-family:Playball;-inkscape-font-specification:Playball"
         id="path7462" />
      <path
         d="m 118.38665,75.004497 1.27,0.0254 h 0.254 q -0.8382,0.6858 -2.0574,3.4798 -1.2192,2.7686 -1.2192,4.0386 0,0.6604 0.4572,0.6604 1.4732,0 3.7592,-4.3434 0.1016,-0.1778 0.1778,-0.1778 0.1524,0 0.1524,0.4826 0,0.4572 -0.254,0.889 -3.1242,5.2578 -5.2324,5.2578 -1.3716,0 -1.3716,-2.1082 0,-1.5748 0.5334,-3.0988 -2.8956,5.1308 -5.3594,5.1308 -1.7018,0 -1.7018,-2.3368 0,-1.778 0.762,-3.6068 0.7874,-1.8288 2.2352,-3.0988 1.4478,-1.2954 3.175,-1.2954 0.8128,0 1.524,0.381 0.7112,0.3556 0.9398,1.1684 0.2794,-0.5842 0.8636,-1.016 0.5842,-0.4318 1.0922,-0.4318 z m -2.1082,1.6764 q -0.254,-0.8128 -1.1938,-0.8128 -1.6764,0 -3.2512,2.3368 -1.5748,2.3114 -1.5748,4.1402 0,0.7874 0.6096,0.7874 0.6604,0 1.5494,-0.8128 0.889,-0.8382 1.6002,-1.9558 1.5748,-2.4892 2.2606,-3.683 z"
         style="font-family:Playball;-inkscape-font-specification:Playball"
         id="path7464" />
      <path
         d="m 137.81763,80.059097 q -0.9398,1.5748 -1.7272,2.6416 -0.762,1.0414 -1.7526,1.8288 -0.9906,0.7874 -1.8034,0.7874 -1.4986,0 -1.4986,-1.7272 0,-2.0066 1.6002,-5.715 0.3556,-0.9398 0.3556,-1.2954 0,-0.508 -0.4572,-0.508 -0.2794,0 -0.9652,0.3302 -0.6858,0.3302 -1.3208,0.9906 -0.6096,0.6604 -0.9906,1.2192 -0.381,0.5588 -0.8382,1.6764 -0.4572,1.1176 -0.6096,1.5748 -0.7366,2.286 -0.9906,3.302 h -2.4892 q 1.3208,-3.6576 1.8034,-4.9276 0.508,-1.27 0.6096,-1.5748 l 0.2286,-0.7112 q 0.2794,-0.8128 0.2794,-1.3462 0,-0.5334 -0.4826,-0.5334 -0.4064,0 -1.1176,0.3556 -0.6858,0.3556 -1.3462,1.0414 -0.6604,0.6858 -1.1176,1.6002 -0.4318,0.889 -0.7112,1.5494 -0.254,0.6604 -0.5334,1.6256 -0.2794,0.9398 -0.508,1.5494 -0.2032,0.5842 -0.4318,1.3716 h -2.4638 q 0.2794,-1.0668 0.6096,-1.905 l 1.651,-4.2164 q 1.016,-2.54 1.016,-3.7084 0,-0.254 -0.0508,-0.3302 h 1.0668 q 0.8636,0 1.1176,0.1778 0.254,0.1524 0.254,0.4318 0,0.2794 -0.3048,1.2954 2.2352,-2.032 4.4704,-2.032 1.3462,0 1.3462,1.1176 0,0.4826 -0.2794,1.1938 2.3114,-2.3114 4.7498,-2.3114 1.3208,0 1.3208,1.1176 0,0.508 -0.1778,0.9652 -0.1778,0.4572 -0.4572,1.1938 -0.2794,0.7112 -0.4572,1.1938 -0.1778,0.4572 -0.4064,1.143 -0.4826,1.397 -0.4826,2.0828 0,0.6604 0.4064,0.6604 0.4318,0 1.0668,-0.5588 0.635,-0.5588 0.9398,-0.9652 0.3302,-0.4064 0.7874,-1.143 0.4826,-0.762 0.8128,-1.3208 0.3302,-0.5588 0.381,-0.5588 0.1524,0 0.1524,0.4826 0,0.4572 -0.254,0.889 z"
         style="font-family:Playball;-inkscape-font-specification:Playball"
         id="path7466" />
      <path
         d="m 147.29186,75.004497 1.27,0.0254 h 0.254 q -0.8382,0.6858 -2.0574,3.4798 -1.2192,2.7686 -1.2192,4.0386 0,0.6604 0.4572,0.6604 1.4732,0 3.7592,-4.3434 0.1016,-0.1778 0.1778,-0.1778 0.1524,0 0.1524,0.4826 0,0.4572 -0.254,0.889 -3.1242,5.2578 -5.2324,5.2578 -1.3716,0 -1.3716,-2.1082 0,-1.5748 0.5334,-3.0988 -2.8956,5.1308 -5.3594,5.1308 -1.7018,0 -1.7018,-2.3368 0,-1.778 0.762,-3.6068 0.7874,-1.8288 2.2352,-3.0988 1.4478,-1.2954 3.175,-1.2954 0.8128,0 1.524,0.381 0.7112,0.3556 0.9398,1.1684 0.2794,-0.5842 0.8636,-1.016 0.5842,-0.4318 1.0922,-0.4318 z m -2.1082,1.6764 q -0.254,-0.8128 -1.1938,-0.8128 -1.6764,0 -3.2512,2.3368 -1.5748,2.3114 -1.5748,4.1402 0,0.7874 0.6096,0.7874 0.6604,0 1.5494,-0.8128 0.889,-0.8382 1.6002,-1.9558 1.5748,-2.4892 2.2606,-3.683 z"
         style="font-family:Playball;-inkscape-font-specification:Playball"
         id="path7468" />
      <path
         d="m 158.36624,75.563297 1.3716,0.0254 q 0.4318,0 0.508,-0.0254 -0.9398,0.5588 -2.2352,4.2672 -0.7366,1.9558 -0.7366,2.9972 0,1.016 0.762,1.016 0.889,0 1.8034,-1.016 0.9398,-1.0414 1.397,-1.9812 0.4826,-0.9398 0.762,-1.7018 -0.127,-0.635 -0.127,-1.5494 0,-0.9144 0.4572,-1.778 0.4826,-0.8636 1.1938,-0.8636 0.8128,0 0.8128,1.143 0,1.016 -0.254,1.6002 -0.254,0.5842 -0.508,1.0922 -0.254,0.4826 -0.3556,0.6858 0,0.7366 0.381,1.1938 0.4064,0.4572 0.9144,0.4572 1.1938,0 2.413,-2.2098 0.0762,-0.127 0.127,-0.127 0.0762,0 0.0762,0.3556 0,1.3716 -0.9398,2.1082 -0.9398,0.7366 -1.8796,0.7366 -1.3716,0 -1.8034,-1.4224 l -0.0762,-0.254 q -1.5748,2.7432 -2.794,3.8862 -1.1938,1.143 -2.8448,1.143 -2.1336,0 -2.1336,-2.413 0,-0.4318 0.1016,-0.9906 -2.413,3.3782 -4.7244,3.3782 -0.635,0 -1.0668,-0.5588 -0.4064,-0.5588 -0.4064,-1.5494 0,-1.016 0.7112,-3.1242 1.3462,-4.064 2.9464,-4.7498 0.762,-0.3302 2.1336,-0.3302 0.0762,0 0.0762,0.1016 0,-0.0762 -0.1778,0.1778 -0.9652,1.3716 -1.9812,3.6322 -0.2032,0.508 -0.635,1.778 -0.4318,1.27 -0.4318,2.1336 0,0.8382 0.635,0.8382 1.27,0 3.683,-4.6228 1.016,-1.9558 1.0414,-1.9812 0.9398,-1.4986 1.8034,-1.4986 z"
         style="font-family:Playball;-inkscape-font-specification:Playball"
         id="path7470" />
      <path
         d="m 176.50185,75.004497 1.27,0.0254 h 0.254 q -0.8382,0.6858 -2.0574,3.4798 -1.2192,2.7686 -1.2192,4.0386 0,0.6604 0.4572,0.6604 1.4732,0 3.7592,-4.3434 0.1016,-0.1778 0.1778,-0.1778 0.1524,0 0.1524,0.4826 0,0.4572 -0.254,0.889 -3.1242,5.2578 -5.2324,5.2578 -1.3716,0 -1.3716,-2.1082 0,-1.5748 0.5334,-3.0988 -2.8956,5.1308 -5.3594,5.1308 -1.7018,0 -1.7018,-2.3368 0,-1.778 0.762,-3.6068 0.7874,-1.8288 2.2352,-3.0988 1.4478,-1.2954 3.175,-1.2954 0.8128,0 1.524,0.381 0.7112,0.3556 0.9398,1.1684 0.2794,-0.5842 0.8636,-1.016 0.5842,-0.4318 1.0922,-0.4318 z m -2.1082,1.6764 q -0.254,-0.8128 -1.1938,-0.8128 -1.6764,0 -3.2512,2.3368 -1.5748,2.3114 -1.5748,4.1402 0,0.7874 0.6096,0.7874 0.6604,0 1.5494,-0.8128 0.889,-0.8382 1.6002,-1.9558 1.5748,-2.4892 2.2606,-3.683 z"
         style="font-family:Playball;-inkscape-font-specification:Playball"
         id="path7472" />
    </g>
  </g>
</svg>
